<?xml version="1.0" encoding="UTF-8" standalone="no"?>
<!-- Created with Inkscape (http://www.inkscape.org/) -->

<svg
   sodipodi:docname="architecture.svg"
   viewBox="0 0 465.25672 604.62763"
   height="604.62762"
   width="465.25671"
   id="svg9"
   version="1.1"
   inkscape:version="1.1.1 (3bf5ae0d25, 2021-09-20)"
   xmlns:inkscape="http://www.inkscape.org/namespaces/inkscape"
   xmlns:sodipodi="http://sodipodi.sourceforge.net/DTD/sodipodi-0.dtd"
   xmlns="http://www.w3.org/2000/svg"
   xmlns:svg="http://www.w3.org/2000/svg">
  <defs
     id="defs13" />
  <sodipodi:namedview
     id="namedview11"
     pagecolor="#ffffff"
     bordercolor="#666666"
     borderopacity="1.0"
     inkscape:pageshadow="2"
     inkscape:pageopacity="0.0"
     inkscape:pagecheckerboard="0"
     showgrid="false"
     inkscape:zoom="1.0224111"
     inkscape:cx="-115.9025"
     inkscape:cy="198.55028"
     inkscape:window-width="3840"
     inkscape:window-height="2050"
     inkscape:window-x="-12"
     inkscape:window-y="58"
     inkscape:window-maximized="1"
     inkscape:current-layer="g15" />
  <g
     inkscape:groupmode="layer"
     inkscape:label="Image"
     id="g15"
     transform="translate(-376.46775,-197.93093)">
    <path
       style="fill:#4170f1;fill-opacity:1;stroke-width:0.32"
       d="m 436.10843,605.80528 c -1.89126,-0.67587 -3.05834,-1.70294 -3.93571,-3.46355 l -0.82752,-1.66064 v -75.29715 c 0,-41.41347 -0.11251,-75.29718 -0.25002,-75.29718 -0.1375,0 -1.1095,0.87648 -2.16,1.94774 -10.40614,10.61194 -27.84697,11.99702 -39.82998,3.1632 -6.03008,-4.44534 -10.2057,-10.72461 -12.07283,-18.15501 -0.82215,-3.27168 -0.73034,-10.94115 0.17043,-14.23997 0.97056,-3.5544 2.62589,-7.19484 4.49961,-9.89555 1.18093,-1.70214 29.83581,-30.54064 105.07325,-105.74646 96.23841,-96.19797 103.62801,-103.5092 106.00951,-104.88589 5.3232,-3.07718 10.1427,-4.35096 16.4354,-4.34386 6.0925,0.007 11.2878,1.41934 16.6265,4.52026 1.3903,0.80753 26.0859,25.30256 104.9582,104.10577 56.727,56.67738 103.8574,103.98577 104.7342,105.12977 2.1806,2.84505 4.2884,7.2559 5.2867,11.06284 1.1295,4.30695 1.2007,10.14007 0.1748,14.3154 -1.4654,5.96425 -4.1532,10.79139 -8.3396,14.97788 -3.972,3.97197 -8.4846,6.53709 -14.3568,8.161 -2.8665,0.7927 -9.9601,0.95846 -13.1712,0.30784 -6.0425,-1.22439 -11.3927,-4.01648 -15.9695,-8.33399 l -2.2987,-2.16851 V 525.008 c 0,53.85706 -0.1016,75.35959 -0.3561,76.27876 -0.4841,1.7487 -2.9065,4.14035 -4.6763,4.61689 -0.9536,0.25677 -6.44,0.33757 -18.5849,0.27373 l -17.2319,-0.0906 -1.5603,-0.96493 c -4.6903,-2.90048 -4.3778,-9.80522 0.5586,-12.34439 1.1114,-0.57171 2.0254,-0.61068 14.32,-0.61068 h 13.1327 V 513.84655 435.5263 l -81.7839,-81.75975 -81.7852,-81.75977 -81.57475,81.73254 -81.57472,81.73254 v 78.33738 78.33738 l 13.41283,0.0901 13.41286,0.0901 1.38445,0.97331 c 3.72931,2.62182 4.10832,7.8968 0.78733,10.95798 -0.77574,0.71507 -1.96554,1.45424 -2.64397,1.64263 -1.90816,0.52985 -34.48227,0.44348 -35.99027,-0.0954 z M 410.29115,446.43479 c 1.33379,-0.2552 3.34058,-0.91885 4.45955,-1.47479 1.85015,-0.9192 10.54423,-9.5152 95.9545,-94.87206 65.37127,-65.33038 94.32957,-94.06494 95.26727,-94.53124 1.8038,-0.89696 4.4632,-0.89654 6.2655,9.6e-4 0.9378,0.46708 29.7877,29.12634 94.9472,94.31999 101.082,101.13498 94.7354,94.99104 99.3733,96.19907 1.0347,0.26951 2.9727,0.48999 4.3067,0.48999 4.6448,0 8.5719,-1.56164 11.6686,-4.64007 5.2393,-5.20838 6.4124,-12.85753 2.9891,-19.49014 -0.8798,-1.70445 -13.9145,-14.86506 -103.592,-104.59191 -92.3953,-92.44613 -102.7952,-102.75226 -104.6952,-103.75092 -5.2382,-2.75331 -10.6964,-2.80158 -16.0527,-0.14197 -1.8034,0.89545 -11.9703,10.96066 -104.48881,103.44349 -56.37005,56.34835 -102.92397,103.12134 -103.45315,103.94003 -2.30992,3.57373 -3.12436,8.71117 -2.06576,13.03088 1.44012,5.87654 6.53046,10.75696 12.47212,11.95782 3.0657,0.61959 3.91101,0.63367 6.64378,0.11082 z"
       id="path1391"
       sodipodi:nodetypes="cscssssssssssssssssssscsssscssscccccccccccsssccsssssssssssssssssss" />
  </g>
</svg>
