<?xml version="1.0" encoding="UTF-8" standalone="no"?>
<!-- Created with Inkscape (http://www.inkscape.org/) -->

<svg
   sodipodi:docname="software.svg"
   viewBox="0 0 465.25672 604.62763"
   height="604.62762"
   width="465.25671"
   id="svg9"
   version="1.1"
   inkscape:version="1.1.1 (3bf5ae0d25, 2021-09-20)"
   xmlns:inkscape="http://www.inkscape.org/namespaces/inkscape"
   xmlns:sodipodi="http://sodipodi.sourceforge.net/DTD/sodipodi-0.dtd"
   xmlns="http://www.w3.org/2000/svg"
   xmlns:svg="http://www.w3.org/2000/svg">
  <defs
     id="defs13" />
  <sodipodi:namedview
     id="namedview11"
     pagecolor="#ffffff"
     bordercolor="#666666"
     borderopacity="1.0"
     inkscape:pageshadow="2"
     inkscape:pageopacity="0.0"
     inkscape:pagecheckerboard="0"
     showgrid="false"
     inkscape:zoom="1.0224111"
     inkscape:cx="-115.9025"
     inkscape:cy="355.04309"
     inkscape:window-width="3840"
     inkscape:window-height="2050"
     inkscape:window-x="-12"
     inkscape:window-y="58"
     inkscape:window-maximized="1"
     inkscape:current-layer="g15" />
  <g
     inkscape:groupmode="layer"
     inkscape:label="Image"
     id="g15"
     transform="translate(-376.46775,-197.93093)">
    <path
       style="fill:#4170f1;fill-opacity:1;stroke-width:0.32"
       d="m 481.2652,802.37198 c -11.29514,-1.30685 -20.49488,-9.31482 -23.74935,-20.67274 -1.03046,-3.59629 -1.02592,-10.34918 0.009,-14.01232 2.53159,-8.95683 9.29216,-16.24163 17.81994,-19.20173 l 1.92,-0.66646 0.16,-18.54592 c 0.15859,-18.38295 0.16614,-18.55578 0.86003,-19.67136 0.94755,-1.52339 1.95799,-2.42759 3.37405,-3.01927 1.05549,-0.44099 7.70787,-0.49526 60.7156,-0.49526 h 59.5303 v -14.72 -14.72 h -7.7229 c -5.1834,0 -8.1559,-0.12941 -9.04,-0.39354 -1.6802,-0.50204 -3.8825,-2.67916 -4.3457,-4.29609 -0.1939,-0.67671 -0.9249,-5.25635 -1.6246,-10.17699 -0.6996,-4.92064 -1.3788,-9.04256 -1.5094,-9.15978 -0.1306,-0.11725 -1.2409,-0.53136 -2.4675,-0.92026 -3.1999,-1.01459 -7.4592,-2.73392 -11.6444,-4.70041 -1.9991,-0.93933 -3.7992,-1.60941 -4.0001,-1.48903 -0.201,0.12039 -3.5246,2.5874 -7.3859,5.48224 -3.8613,2.89485 -7.6659,5.54884 -8.4546,5.89776 -1.8439,0.81562 -4.32187,0.60823 -6.21998,-0.5206 -1.75623,-1.04445 -32.62586,-32.02282 -33.36576,-33.4833 -0.77453,-1.52883 -0.7776,-4.61693 -0.006,-6.06304 0.32371,-0.60666 2.967,-4.27082 5.87404,-8.14259 2.90704,-3.87175 5.35367,-7.30016 5.43696,-7.61866 0.0833,-0.31853 0.0118,-0.75837 -0.15881,-0.97741 -0.71389,-0.91654 -3.83216,-8.08905 -5.39015,-12.3983 l -1.6776,-4.64 -9.38876,-1.36138 c -5.16381,-0.74873 -9.80391,-1.53014 -10.3113,-1.73641 -1.39306,-0.5664 -2.70512,-1.79239 -3.49149,-3.26247 -0.70547,-1.31878 -0.70605,-1.33558 -0.80467,-23.39974 -0.0543,-12.144 -0.008,-22.83507 0.10278,-23.75792 0.2696,-2.2456 1.76756,-4.45722 3.67591,-5.42717 1.12246,-0.57053 3.4863,-1.01955 10.72,-2.03635 5.104,-0.71747 9.37165,-1.40214 9.48368,-1.52154 0.11203,-0.11936 0.79104,-1.90432 1.50896,-3.96659 0.71789,-2.06224 2.04185,-5.37424 2.94211,-7.36 0.90022,-1.98573 1.93146,-4.29213 2.29155,-5.12531 l 0.65479,-1.51488 -5.44279,-7.28512 c -2.9935,-4.00682 -5.65651,-7.71712 -5.91776,-8.24512 -0.83581,-1.68915 -0.95363,-3.26371 -0.39046,-5.21715 0.51456,-1.78483 0.85699,-2.15539 16.41773,-17.76698 8.7407,-8.76928 16.47984,-16.2927 17.19811,-16.71872 1.6351,-0.96982 3.73337,-1.2728 5.50721,-0.79517 0.9434,0.25405 3.7413,2.14644 9.0381,6.113 4.2194,3.15974 7.7568,5.74502 7.8608,5.74502 0.1041,0 1.815,-0.78157 3.802,-1.73683 3.3863,-1.62797 11.0774,-4.66643 13.049,-5.15517 0.4856,-0.12038 0.9554,-0.33606 1.0439,-0.4793 0.089,-0.14323 0.7398,-4.33926 1.4474,-9.32454 1.5096,-10.63712 1.9329,-11.88106 4.6052,-13.5335 l 1.5698,-0.97066 23.038,-0.0882 c 26.0955,-0.0999 25.0594,-0.18765 27.368,2.31676 0.7064,0.7664 1.4283,1.9465 1.6042,2.62247 0.1759,0.67593 0.8415,4.97299 1.4792,9.54899 0.6376,4.576 1.2628,8.58458 1.3894,8.90794 0.1575,0.40224 1.7432,1.13804 5.021,2.32988 2.635,0.95808 6.5821,2.6065 8.7713,3.66311 2.1892,1.05664 4.1637,1.85081 4.3877,1.76486 0.224,-0.0859 3.5958,-2.55267 7.4929,-5.4816 7.3649,-5.5352 9.004,-6.52537 10.8218,-6.53715 3.0051,-0.0195 2.6636,-0.30902 20.152,17.08592 11.1201,11.06064 16.6283,16.76096 17.033,17.62704 0.714,1.52806 0.7931,4.24304 0.1658,5.69027 -0.2455,0.56637 -2.961,4.39927 -6.0344,8.51757 l -5.5881,7.48784 1.8314,3.87216 c 2.0206,4.27222 3.6956,8.42138 4.8135,11.9232 l 0.7313,2.29104 2.4263,0.33747 c 17.8289,2.47991 17.7904,2.47123 19.5898,4.41114 1.9967,2.15251 1.8969,0.67225 1.8025,26.74502 l -0.086,23.76429 -1.0336,1.48835 c -1.6373,2.35776 -2.5537,2.6481 -13.2241,4.19005 l -9.4223,1.3616 -0.8837,2.56 c -1.4486,4.19658 -2.7788,7.45376 -4.7313,11.58557 l -1.8455,3.9056 5.607,7.4544 c 3.0839,4.09993 5.8065,7.91779 6.0503,8.48416 0.6493,1.50841 0.5633,4.36483 -0.1741,5.78301 -0.3395,0.65299 -8.0075,8.55526 -17.04,17.56057 -17.331,17.27898 -17.0749,17.05943 -19.9055,17.0649 -2.0239,0.004 -3.5902,-0.91469 -10.9629,-6.42947 -4.1988,-3.1408 -7.7783,-5.65069 -7.9543,-5.5776 -0.176,0.0731 -2.552,1.13638 -5.28,2.36275 -2.728,1.2264 -6.544,2.76825 -8.48,3.42637 -1.936,0.65808 -3.6502,1.31219 -3.8093,1.4535 -0.1592,0.14134 -0.9084,4.53414 -1.665,9.76179 -1.5998,11.05386 -1.8447,11.7209 -4.8871,13.31031 l -1.7116,0.89414 h -7.9635 -7.9635 v 14.7175 14.71754 l 59.9686,0.0825 59.9685,0.0825 1.3915,1.00406 c 0.8378,0.60458 1.7416,1.66948 2.2714,2.67655 l 0.88,1.67248 v 18.14502 18.14503 l 1.84,0.56764 c 6.4786,1.99872 12.8455,7.62407 15.9694,14.10922 2.1277,4.41728 2.7575,7.20275 2.7493,12.16 -0.01,4.96925 -0.6474,7.79635 -2.7493,12.16 -6.5217,13.5392 -22.9307,19.42528 -36.5853,13.12352 -3.0088,-1.38864 -4.9024,-2.70368 -7.5797,-5.2639 -13.473,-12.88356 -10.9023,-34.51248 5.2356,-44.05242 1.32,-0.78032 3.372,-1.73251 4.56,-2.11597 l 2.16,-0.69721 v -13.857 -13.85702 h -55.04 -55.04 v 13.84 13.84 l 2.4843,0.87731 c 6.854,2.42048 13.3378,8.73335 16.1971,15.77011 2.3995,5.90519 2.3995,14.55997 0,20.46516 -3.2385,7.96995 -10.6272,14.55996 -18.6577,16.64086 -11.5544,2.99405 -23.5489,-1.43296 -30.3272,-11.19344 -1.4592,-2.10112 -3.3307,-6.32035 -3.9947,-9.00608 -0.988,-3.99594 -0.9787,-9.7632 0.022,-13.55392 2.1371,-8.09629 7.8748,-14.90205 15.5157,-18.40406 1.2534,-0.5745 2.747,-1.14404 3.319,-1.26567 l 1.04,-0.22112 v -13.89475 -13.89456 h -55.04 -55.04004 v 13.92 c 0,9.78115 0.10308,13.92 0.34669,13.92 0.9473,0 5.5369,2.15626 7.80813,3.66835 7.76909,5.17235 12.32518,13.6936 12.32518,23.05165 0,16.59283 -14.55148,29.55277 -31.04,27.64506 z m 6.04422,-14.38442 c 2.44787,-0.56432 4.93869,-1.96064 6.77722,-3.7992 6.64301,-6.64298 4.74864,-17.47638 -3.79427,-21.6985 -2.34964,-1.16128 -2.5512,-1.20294 -5.81732,-1.20294 -3.17481,0 -3.51433,0.0645 -5.50937,1.04666 -3.12608,1.53897 -5.14266,3.50262 -6.57539,6.40294 -1.17354,2.37558 -1.20509,2.532 -1.20509,5.97491 0,3.31216 0.0645,3.67175 1.02179,5.69255 2.6769,5.65091 9.22438,8.93868 15.10243,7.58358 z m 124.98455,-0.15117 c 7.3708,-1.91984 11.9524,-9.55504 9.8959,-16.49139 -1.0482,-3.53562 -3.1412,-6.34278 -6.1562,-8.25667 -7.2149,-4.5801 -17.3298,-0.73005 -19.8942,7.57232 -2.3165,7.4999 1.9683,15.09334 9.6904,17.17296 2.2217,0.59833 4.1745,0.59917 6.4641,0.003 z m 126.2153,-0.56502 c 3.5465,-1.43251 6.3712,-4.25143 7.8365,-7.82051 0.9132,-2.22423 0.9021,-7.29524 -0.021,-9.59408 -2.6863,-6.68996 -9.9977,-10.21559 -16.7859,-8.09434 -2.4188,0.75584 -3.3733,1.35706 -5.561,3.50288 -3.0475,2.98902 -4.4559,7.36016 -3.7319,11.58224 1.4654,8.54525 10.3541,13.61846 18.2633,10.42381 z M 624.45237,661.84708 c 0.088,-0.39613 0.6628,-4.28 1.2779,-8.63079 1.1352,-8.0295 1.5682,-9.72393 2.8302,-11.07552 1.0402,-1.11405 2.1674,-1.61305 6.7791,-3.00102 5.2815,-1.58954 12.4754,-4.55875 16.8056,-6.93635 3.9585,-2.17348 5.0837,-2.59901 6.8478,-2.58954 2.0459,0.0109 3.473,0.84563 10.6196,6.2113 l 6.666,5.00483 10.8133,-10.80983 c 5.9473,-5.9454 10.8084,-10.88262 10.8025,-10.97158 -0.01,-0.089 -2.3776,-3.32976 -5.2702,-7.20176 -6.9961,-9.3647 -7.1189,-9.89654 -3.6952,-16.00195 3.2408,-5.77907 6.7087,-14.45859 8.3223,-20.82874 0.4656,-1.83817 2.0063,-3.83001 3.5859,-4.63581 0.9872,-0.50364 3.6241,-1.01072 10.0043,-1.92377 4.765,-0.68192 8.6997,-1.24208 8.7437,-1.2448 0.2395,-0.0147 0.036,-30.72493 -0.2037,-30.72493 -0.156,0 -4.224,-0.57846 -9.04,-1.2855 -11.6589,-1.71165 -11.5508,-1.63975 -13.858,-9.2146 -2.2302,-7.32201 -3.8444,-11.06131 -8.9359,-20.6999 -0.8731,-1.6528 -0.9064,-4.64886 -0.069,-6.2208 0.3224,-0.60547 2.7348,-3.95834 5.3608,-7.45085 2.6259,-3.49248 4.8414,-6.52512 4.9232,-6.73917 0.082,-0.21404 -4.7136,-5.24937 -10.6564,-11.1896 l -10.805,-10.80044 -6.8779,5.15609 c -3.7828,2.83584 -7.3412,5.35603 -7.9075,5.60042 -0.5664,0.24438 -1.8036,0.44435 -2.7495,0.44435 -1.5376,0 -2.3198,-0.30784 -7.3855,-2.90669 -5.89,-3.02182 -11.236,-5.17817 -17.4156,-7.02483 -4.0322,-1.20493 -5.633,-2.26861 -6.5638,-4.36134 -0.3042,-0.68397 -1.0789,-4.98055 -1.7503,-9.70714 l -1.2046,-8.48 -15.3772,-0.083 -15.3772,-0.083 -1.0365,7.44304 c -0.5701,4.09366 -1.2463,8.29891 -1.5026,9.34496 -0.837,3.41632 -2.2473,4.61123 -7.0075,5.93747 -6.1064,1.70131 -13.9995,5.01987 -20.96,8.81242 -2.2598,1.23129 -4.134,1.48323 -6.1311,0.82413 -0.6056,-0.19988 -4.2619,-2.72388 -8.125,-5.6089 l -7.0239,-5.24547 -10.79999,10.76745 c -5.94,5.92208 -10.8,10.87556 -10.8,11.00772 0,0.13212 2.36134,3.39436 5.24745,7.24937 3.12301,4.17146 5.34135,7.43651 5.47933,8.06477 0.44717,2.03597 0.20423,3.89568 -0.74752,5.7217 -4.70512,9.02732 -6.62905,13.4887 -8.35206,19.36742 -2.48013,8.46186 -2.3368,8.36134 -14.41309,10.11062 -4.67174,0.67674 -8.60211,1.23469 -8.73411,1.23991 -0.20928,0.008 -0.36912,30.71766 -0.16,30.7368 0.044,0.004 3.9967,0.56205 8.78377,1.24006 12.02503,1.7032 11.95136,1.65184 14.50784,10.11261 1.52416,5.04422 3.77965,10.58147 6.17328,15.15546 0.88781,1.69651 1.95767,3.75225 2.37751,4.56835 0.95894,1.86413 1.03312,4.58131 0.1719,6.29757 -0.32528,0.64825 -2.78358,4.09868 -5.46288,7.66768 -2.67926,3.56896 -4.87142,6.66668 -4.87142,6.8838 0,0.21712 4.81952,5.19802 10.71005,11.06861 l 10.71004,10.67386 2.3224,-1.71767 c 1.2772,-0.9447 4.4519,-3.31552 7.0547,-5.26844 7.1937,-5.3976 7.5299,-5.42992 15.3311,-1.4738 6.4237,3.25764 12.4831,5.71805 17.1914,6.98061 6.7625,1.81338 7.1918,2.50327 8.8374,14.20397 0.6312,4.488 1.2058,8.33014 1.2769,8.53814 0.097,0.2833 3.9439,0.38368 15.3414,0.40026 l 15.2123,0.0221 0.1595,-0.72026 z m -19.3472,-54.85229 c -6.3888,-0.62493 -11.6872,-1.88663 -16.9197,-4.02909 -16.1649,-6.61885 -28.3685,-20.66861 -32.6665,-37.60854 -2.2415,-8.8344 -2.174,-18.68301 0.1902,-27.72692 3.8631,-14.77811 13.9811,-27.41232 27.8798,-34.81324 3.6096,-1.92212 10.4166,-4.3536 14.4762,-5.17101 15.3542,-3.09162 31.5236,0.54777 44.1418,9.93533 3.4217,2.54563 9.3984,8.68544 11.9396,12.26544 6.5975,9.29443 10.1366,20.39648 10.1528,31.84838 0.013,8.85072 -1.6381,16.16387 -5.4303,24.06106 -7.3426,15.29065 -21.2297,26.30131 -37.789,29.96176 -5.486,1.21267 -11.6191,1.70288 -15.9749,1.27683 z m 12.1081,-14.95562 c 5.4607,-1.19869 9.9573,-3.10454 14.5706,-6.17574 17.2934,-11.51271 23.2068,-33.93063 13.8429,-52.47939 -6.9638,-13.7945 -21.0918,-22.49728 -36.5216,-22.49728 -6.4675,0 -12.0051,1.29302 -17.92,4.18428 -14.1489,6.9162 -22.9669,20.95751 -22.9948,36.61572 -0.01,4.91529 0.4629,8.17148 1.7843,12.32 4.7083,14.78096 17.4257,25.84336 32.5705,28.33187 3.4857,0.5727 11.434,0.41046 14.6681,-0.29946 z"
       id="path1391"
       sodipodi:nodetypes="cscscsssscccssssssssssssssssscssssssssssscssssssssssccscsssssssssssssscsscssscsscsscsssssssssssscccccccsscccsscssssscccccccsssssscsscccccssssccssssssssscssssccssssssscsssssscscsssssssssssscscssssssscccsssssscssssssscssssssssscssssssscccsssssssscssssssssccss" />
  </g>
</svg>
